<?xml version="1.0" encoding="UTF-8"?>
<svg width="49px" height="67px" viewBox="0 0 49 67" version="1.1" xmlns="http://www.w3.org/2000/svg" xmlns:xlink="http://www.w3.org/1999/xlink">
    <!-- Generator: Sketch 51.2 (57519) - http://www.bohemiancoding.com/sketch -->
    <title>Page 1</title>
    <desc>Created with Sketch.</desc>
    <defs></defs>
    <g id="Page-1" stroke="none" stroke-width="1" fill="none" fill-rule="evenodd">
        <g id="Home" transform="translate(-696.000000, -3236.000000)">
            <g id="Footer" transform="translate(0.000000, 3189.000000)">
                <g id="Page-1" transform="translate(696.000000, 47.000000)">
                    <polygon id="Fill-1" fill="#FEFEFE" points="26.5103431 9 26.5103431 18.6001086 31.6095771 18.6001086 31.6095771 27.3540434 17.4231557 27.3540434 17.4231557 18.6001086 22.4896569 18.6001086 22.4896569 9 0 9 0 18.6001086 4.90392794 18.6001086 4.90392794 47.3998914 0 47.3998914 0 57 22.4896569 57 22.4896569 47.3998914 17.4231557 47.3998914 17.4231557 36.8889782 31.6095771 36.8889782 31.6095771 47.3998914 26.5103431 47.3998914 26.5103431 57 49 57 49 47.3998914 44.1293505 47.3998914 44.1293505 18.6001086 49 18.6001086 49 9"></polygon>
                    <polygon id="Fill-2" fill="#EC1D24" points="0 67 49 67 49 63 0 63"></polygon>
                    <polygon id="Fill-3" fill="#EC1D24" points="0 4 49 4 49 0 0 0"></polygon>
                </g>
            </g>
        </g>
    </g>
</svg>